<svg xmlns="http://www.w3.org/2000/svg" viewBox="0 0 380 760" width="380" height="760" font-family="Segoe UI, Roboto, sans-serif">
  <rect width="380" height="760" rx="34" fill="#0E1116"/>
  <rect x="8" y="8" width="364" height="744" rx="28" fill="#F4F7FA"/>
  <text x="26" y="42" fill="#6B7684" font-size="12" font-family="Consolas, monospace">09:59</text>
  <text x="190" y="80" fill="#6B7684" font-size="13" text-anchor="middle">Son&#8217;s phone &#183; notification</text>

  <rect x="24" y="104" width="332" height="182" rx="20" fill="#FFFFFF" stroke="#DCE4EC"/>
  <rect x="46" y="126" width="34" height="34" rx="10" fill="#1E3C96"/>
  <text x="63" y="149" fill="#FFFFFF" font-size="15" font-weight="700" text-anchor="middle">C</text>
  <text x="92" y="141" fill="#101418" font-size="14" font-weight="600">Chetaka</text>
  <text x="92" y="158" fill="#8B96A4" font-size="12">now</text>
  <text x="46" y="192" fill="#D22B20" font-size="17" font-weight="700">Amma may be on a scam call</text>
  <text x="46" y="220" fill="#2C3642" font-size="14">Unknown number, 14 minutes.</text>
  <text x="46" y="242" fill="#2C3642" font-size="14">A payment app opened right after.</text>
  <text x="46" y="268" fill="#8B96A4" font-size="12">Payment paused. No money has moved.</text>

  <rect x="24" y="306" width="160" height="56" rx="16" fill="#101418"/>
  <text x="104" y="341" fill="#FFFFFF" font-size="15" font-weight="600" text-anchor="middle">Call her now</text>
  <rect x="196" y="306" width="160" height="56" rx="16" fill="#FFFFFF" stroke="#DCE4EC"/>
  <text x="276" y="341" fill="#2C3642" font-size="15" text-anchor="middle">She&#8217;s fine</text>

  <rect x="24" y="388" width="332" height="200" rx="20" fill="#FFFFFF" stroke="#DCE4EC"/>
  <text x="46" y="418" fill="#6B7684" font-size="11" font-family="Consolas, monospace">WHAT WAS SHARED</text>
  <line x1="46" y1="432" x2="334" y2="432" stroke="#EDF1F5"/>
  <text x="46" y="458" fill="#2C3642" font-size="14">Risk level</text>
  <text x="334" y="458" fill="#D22B20" font-size="14" font-weight="600" text-anchor="end">Critical</text>
  <text x="46" y="488" fill="#2C3642" font-size="14">Call duration</text>
  <text x="334" y="488" fill="#2C3642" font-size="14" text-anchor="end">14 min</text>
  <text x="46" y="518" fill="#2C3642" font-size="14">Call audio</text>
  <text x="334" y="518" fill="#1B8A5A" font-size="14" font-weight="600" text-anchor="end">Never shared</text>
  <text x="46" y="548" fill="#2C3642" font-size="14">Transcript</text>
  <text x="334" y="548" fill="#1B8A5A" font-size="14" font-weight="600" text-anchor="end">Never shared</text>
  <text x="46" y="574" fill="#8B96A4" font-size="12">Amma turned this on for you. She can turn it off.</text>

  <rect x="24" y="610" width="332" height="58" rx="16" fill="#EAF3FA" stroke="#BEDCF0"/>
  <text x="190" y="636" fill="#1580C4" font-size="13" text-anchor="middle">Opt-in per contact.</text>
  <text x="190" y="656" fill="#5A6675" font-size="13" text-anchor="middle">Only risk level and timing leave the phone.</text>
</svg>
